<svg xmlns="http://www.w3.org/2000/svg" xmlns:xlink="http://www.w3.org/1999/xlink" width="124" height="124" viewBox="0 0 124 124"><defs><style>.a,.b{fill:#00c8b6;}.a{stroke:#707070;}.c{clip-path:url(#a);}.d{clip-path:url(#b);}</style><clipPath id="a"><rect class="a" width="124" height="124" transform="translate(119 692)"/></clipPath><clipPath id="b"><rect class="b" width="124" height="124"/></clipPath></defs><g class="c" transform="translate(-119 -692)"><g class="d" transform="translate(119 692)"><path class="b" d="M88.968,124.19h-62.1A25.9,25.9,0,0,1,1,98.317V25.873A25.9,25.9,0,0,1,26.873,0h62.1a25.9,25.9,0,0,1,25.873,25.873V98.317A25.9,25.9,0,0,1,88.968,124.19ZM26.873,10.349A15.524,15.524,0,0,0,11.349,25.873V98.317a15.524,15.524,0,0,0,15.524,15.524h62.1a15.524,15.524,0,0,0,15.524-15.524V25.873A15.524,15.524,0,0,0,88.968,10.349Zm51.746,41.4h-41.4a15.524,15.524,0,0,1,0-31.048h41.4a15.524,15.524,0,0,1,0,31.048Zm-41.4-20.7a5.175,5.175,0,1,0,0,10.349h41.4a5.175,5.175,0,0,0,0-10.349ZM26.873,67.27a5.175,5.175,0,1,0,3.659,1.516A5.174,5.174,0,0,0,26.873,67.27Zm20.7,0a5.175,5.175,0,1,0,3.659,1.516A5.174,5.174,0,0,0,47.571,67.27Zm20.7,0a5.175,5.175,0,1,0,3.659,1.516A5.175,5.175,0,0,0,68.27,67.27Zm-41.4,20.7a5.175,5.175,0,1,0,3.659,1.516A5.174,5.174,0,0,0,26.873,87.968Zm20.7,0a5.175,5.175,0,1,0,3.659,1.516A5.174,5.174,0,0,0,47.571,87.968Zm41.4-20.7a5.175,5.175,0,1,0,3.659,1.516A5.175,5.175,0,0,0,88.968,67.27Zm5.175,25.873a5.175,5.175,0,0,0-5.175-5.175H68.27a5.175,5.175,0,0,0,0,10.349h20.7a5.175,5.175,0,0,0,5.175-5.175Z" transform="translate(4.175)"/></g></g></svg>