<svg xmlns="http://www.w3.org/2000/svg" xmlns:xlink="http://www.w3.org/1999/xlink" width="33" height="30" viewBox="0 0 33 30"><defs><style>.a,.c{fill:#fed813;}.a{stroke:#707070;}.b{clip-path:url(#a);}</style><clipPath id="a"><rect class="a" width="33" height="30" transform="translate(0 0)"/></clipPath></defs><g class="b" transform="translate(0 0)"><g transform="translate(0.846 1.06)"><g transform="translate(0 0)"><path class="c" d="M27.845,6.92H23.493L20.98,4.174H11.369V8.293H7.25v4.119H3.13V26.143a2.754,2.754,0,0,0,2.746,2.746H27.845a2.754,2.754,0,0,0,2.746-2.746V9.666A2.754,2.754,0,0,0,27.845,6.92ZM16.861,24.77A6.865,6.865,0,1,1,23.726,17.9,6.868,6.868,0,0,1,16.861,24.77Z" transform="translate(0.989 -0.055)"/><path class="c" d="M4.119,12.028H6.865V7.909h4.119V5.163H6.865V1.043H4.119V5.163H0V7.909H4.119Z" transform="translate(0 -1.043)"/><path class="c" d="M14.62,11.27a4.389,4.389,0,0,0-4.394,4.394h0A4.394,4.394,0,1,0,14.62,11.27Z" transform="translate(3.23 2.186)"/></g></g></g></svg>