<svg xmlns="http://www.w3.org/2000/svg" width="29.793" height="32" viewBox="0 0 29.793 32">
  <g id="child_2_" data-name="child (2)" transform="translate(-16)">
    <path id="Path_1482" data-name="Path 1482" d="M101.695,110.482l-.105-.36a.364.364,0,0,0-.395-.259l-.368-2.759a2.758,2.758,0,0,0-1.5-2.1l-1.188-.594a.349.349,0,0,0-.471.167l-2.376-.874a1.1,1.1,0,0,1-.754-1.047v-1.779l2.377-.99a3.31,3.31,0,0,0,2.037-3.056v-.552a1.655,1.655,0,0,0,0-3.31v-1.1c0-1.524-1.235-3.862-2.759-3.862H86.261c-1.524,0-2.759,2.339-2.759,3.862v1.1a1.655,1.655,0,0,0,0,3.31v.552a3.31,3.31,0,0,0,2.037,3.056l2.377.99v1.779a1.1,1.1,0,0,1-.754,1.047l-2.329.857a.346.346,0,0,0-.46-.15l-1.084.542a2.817,2.817,0,0,0-1.607,2.156l-.368,2.759a.364.364,0,0,0-.395.259l-.105.36a.364.364,0,0,0,.247.451l.786.229v1.665a1.1,1.1,0,0,0,1.1,1.1H99.5a1.1,1.1,0,0,0,1.1-1.1v-1.649l.841-.245A.364.364,0,0,0,101.695,110.482Z" transform="translate(-60.33 -81.931)" fill="#ffd7a3"/>
    <path id="Path_1483" data-name="Path 1483" d="M183.4,274h-6.621v1.826a1.1,1.1,0,0,1-.535.945A7.493,7.493,0,0,0,183.4,274Z" transform="translate(-149.196 -255.1)" fill="#fdc88e"/>
    <g id="Group_421" data-name="Group 421" transform="translate(20.903 22.439)">
      <path id="Path_1484" data-name="Path 1484" d="M107.122,331.4l-.441-3.305a2.759,2.759,0,0,0-1.5-2.1l-1.188-.594a.352.352,0,0,0-.5.232,6.622,6.622,0,0,1-12.777,0,.35.35,0,0,0-.493-.231l-1.084.542a2.817,2.817,0,0,0-1.607,2.156l-.449,3.368c1.458.5,3.953,1.252,3.953,1.252v2.207h12.138v-2.207Z" transform="translate(-87.087 -325.36)" fill="#fed813"/>
    </g>
    <g id="Group_422" data-name="Group 422" transform="translate(20.914 24.353)">
      <path id="Path_1485" data-name="Path 1485" d="M91.184,358.4a3.3,3.3,0,0,0-.648-1.818l-2.59-3.454a2.689,2.689,0,0,0-.251.82l-.437,3.28Z" transform="translate(-87.257 -353.125)" fill="#fed813"/>
    </g>
    <g id="Group_423" data-name="Group 423" transform="translate(20.469 27.929)">
      <path id="Path_1486" data-name="Path 1486" d="M80.814,405.587a.364.364,0,0,0,.247.451l4.124,1.2v-.412a3.3,3.3,0,0,0-.1-.766l-3.714-1.083a.364.364,0,0,0-.451.247Z" transform="translate(-80.799 -404.964)" fill="#4e87bb"/>
    </g>
    <g id="Group_424" data-name="Group 424" transform="translate(37.007 24.353)">
      <path id="Path_1487" data-name="Path 1487" d="M320.6,358.4a3.3,3.3,0,0,1,.648-1.818l2.59-3.454a2.688,2.688,0,0,1,.251.82l.437,3.28Z" transform="translate(-320.598 -353.125)" fill="#fed813"/>
    </g>
    <g id="Group_425" data-name="Group 425" transform="translate(36.993 27.929)">
      <path id="Path_1488" data-name="Path 1488" d="M324.772,405.587a.364.364,0,0,1-.247.451l-4.124,1.2v-.412a3.3,3.3,0,0,1,.1-.766l3.714-1.083a.364.364,0,0,1,.451.247Z" transform="translate(-320.4 -404.964)" fill="#4e87bb"/>
    </g>
    <g id="Group_426" data-name="Group 426" transform="translate(16 9.931)">
      <path id="Path_1489" data-name="Path 1489" d="M22.069,144c-1.655,0-4.966.621-4.966,5.517A75.112,75.112,0,0,1,16,160.552s5.517-.584,5.517-7.172c0-6.138,1.1-7.172,1.1-7.172Z" transform="translate(-16 -144)" fill="#9d6e48"/>
    </g>
    <g id="Group_427" data-name="Group 427" transform="translate(16 10.483)">
      <path id="Path_1490" data-name="Path 1490" d="M21.517,160.828c0-6.138,1.1-7.172,1.1-7.172L21.517,152c-.638.086-3.08.1-2.759,4.414S20.69,165.1,16,168C16,168,21.517,167.415,21.517,160.828Z" transform="translate(-16 -152)" fill="#8d5f3d"/>
    </g>
    <g id="Group_428" data-name="Group 428" transform="translate(20.966 9.379)">
      <path id="Path_1491" data-name="Path 1491" d="M89.757,138.256l-.686-1.892a.552.552,0,1,0-1.037.376l.686,1.892a.552.552,0,0,0,1.037-.376Z" transform="translate(-88 -136)" fill="#6aa2de"/>
    </g>
    <g id="Group_429" data-name="Group 429" transform="translate(39.172 9.931)">
      <path id="Path_1492" data-name="Path 1492" d="M352.552,144c1.655,0,4.965.621,4.965,5.517a75.112,75.112,0,0,0,1.1,11.034s-5.517-.584-5.517-7.172c0-6.138-1.1-7.172-1.1-7.172Z" transform="translate(-352 -144)" fill="#9d6e48"/>
    </g>
    <g id="Group_430" data-name="Group 430" transform="translate(39.172 10.483)">
      <path id="Path_1493" data-name="Path 1493" d="M353.1,160.828c0-6.138-1.1-7.172-1.1-7.172L353.1,152c.638.086,3.08.1,2.759,4.414s-1.931,8.69,2.759,11.586C358.621,168,353.1,167.415,353.1,160.828Z" transform="translate(-352 -152)" fill="#8d5f3d"/>
    </g>
    <g id="Group_431" data-name="Group 431" transform="translate(39.037 9.379)">
      <path id="Path_1494" data-name="Path 1494" d="M350.076,138.256l.686-1.892a.552.552,0,1,1,1.037.376l-.686,1.892a.552.552,0,0,1-1.037-.376Z" transform="translate(-350.043 -136)" fill="#6aa2de"/>
    </g>
    <path id="Path_1495" data-name="Path 1495" d="M113.1,92.966v-1.1c0-1.524-1.235-3.862-2.759-3.862h-9.931c-1.524,0-2.759,2.339-2.759,3.862v1.1a1.655,1.655,0,0,0,0,3.31v.552a3.31,3.31,0,0,0,2.037,3.056l3.565,1.485a5.517,5.517,0,0,0,2.122.424h0a5.518,5.518,0,0,0,2.122-.424l3.565-1.485a3.31,3.31,0,0,0,2.037-3.056v-.552a1.655,1.655,0,1,0,0-3.31Z" transform="translate(-74.483 -81.931)" fill="#ffe1b2"/>
    <g id="Group_432" data-name="Group 432" transform="translate(26.483 11.586)">
      <path id="Path_1496" data-name="Path 1496" d="M168.552,169.655h0A.553.553,0,0,1,168,169.1v-.552a.553.553,0,0,1,.552-.552h0a.553.553,0,0,1,.552.552v.552A.553.553,0,0,1,168.552,169.655Z" transform="translate(-168 -168)" fill="#623f33"/>
    </g>
    <g id="Group_433" data-name="Group 433" transform="translate(34.207 11.586)">
      <path id="Path_1497" data-name="Path 1497" d="M280.552,169.655h0A.553.553,0,0,1,280,169.1v-.552a.553.553,0,0,1,.552-.552h0a.553.553,0,0,1,.552.552v.552A.553.553,0,0,1,280.552,169.655Z" transform="translate(-280 -168)" fill="#623f33"/>
    </g>
    <g id="Group_435" data-name="Group 435" transform="translate(28.138 15.448)">
      <g id="Group_434" data-name="Group 434">
        <path id="Path_1498" data-name="Path 1498" d="M194.757,225.669a4.6,4.6,0,0,1-2.517-.662.552.552,0,0,1,.621-.912,4.053,4.053,0,0,0,3.793,0,.552.552,0,0,1,.621.912A4.6,4.6,0,0,1,194.757,225.669Z" transform="translate(-191.999 -223.998)" fill="#e4b07b"/>
      </g>
    </g>
    <path id="Path_1499" data-name="Path 1499" d="M104.9,87c-.1,2.982-7.245,5.035-7.245,5.035a1.655,1.655,0,0,0,0,3.31v.552a3.31,3.31,0,0,0,2.037,3.056l3.565,1.485a5.523,5.523,0,0,0,.533.19,23.024,23.024,0,0,1-3.239-2.819,2.586,2.586,0,0,1-.689-1.767V92.954c1.579-.551,6.012-2.362,6.069-5.337,0-.225,0-.432-.009-.621Z" transform="translate(-74.483 -80.996)" fill="#ffd7a3"/>
    <path id="Path_1500" data-name="Path 1500" d="M108.072,0a5.956,5.956,0,0,0-2.759.552A5.956,5.956,0,0,0,102.554,0c-1.793,0-8.6,3.452-6.069,11.452,0,0,8.828-1.567,8.828-5.383,0,3.816,8.828,5.383,8.828,5.383C116.669,3.452,109.865,0,108.072,0Z" transform="translate(-74.417)" fill="#9d6e48"/>
    <g id="Group_436" data-name="Group 436" transform="translate(21.512)">
      <path id="Path_1501" data-name="Path 1501" d="M105.313.552h0A5.956,5.956,0,0,0,102.555,0c-1.793,0-8.6,3.452-6.069,11.452,0,0,1.069-.19,2.461-.6C97.388,3.681,103.6.558,105.313.552Z" transform="translate(-95.929)" fill="#8d5f3d"/>
    </g>
    <g id="Group_437" data-name="Group 437" transform="translate(30.345 30.345)">
      <circle id="Ellipse_27" data-name="Ellipse 27" cx="0.552" cy="0.552" r="0.552" fill="#ff8c51"/>
    </g>
    <g id="Group_438" data-name="Group 438" transform="translate(25.931 30.345)">
      <circle id="Ellipse_28" data-name="Ellipse 28" cx="0.552" cy="0.552" r="0.552" fill="#ff8c51"/>
    </g>
    <g id="Group_439" data-name="Group 439" transform="translate(34.759 30.345)">
      <circle id="Ellipse_29" data-name="Ellipse 29" cx="0.552" cy="0.552" r="0.552" fill="#ff8c51"/>
    </g>
    <g id="Group_440" data-name="Group 440" transform="translate(32.552 30.345)">
      <circle id="Ellipse_30" data-name="Ellipse 30" cx="0.552" cy="0.552" r="0.552" fill="#ffc84a"/>
    </g>
    <g id="Group_441" data-name="Group 441" transform="translate(28.138 30.345)">
      <circle id="Ellipse_31" data-name="Ellipse 31" cx="0.552" cy="0.552" r="0.552" transform="translate(0)" fill="#ffc84a"/>
    </g>
    <g id="Group_442" data-name="Group 442" transform="translate(31.448 28.69)">
      <circle id="Ellipse_32" data-name="Ellipse 32" cx="0.552" cy="0.552" r="0.552" fill="#ffc84a"/>
    </g>
    <g id="Group_443" data-name="Group 443" transform="translate(27.034 28.69)">
      <circle id="Ellipse_33" data-name="Ellipse 33" cx="0.552" cy="0.552" r="0.552" transform="translate(0)" fill="#ffc84a"/>
    </g>
    <g id="Group_444" data-name="Group 444" transform="translate(35.862 28.69)">
      <circle id="Ellipse_34" data-name="Ellipse 34" cx="0.552" cy="0.552" r="0.552" fill="#ffc84a"/>
    </g>
    <g id="Group_445" data-name="Group 445" transform="translate(24.828 28.69)">
      <circle id="Ellipse_35" data-name="Ellipse 35" cx="0.552" cy="0.552" r="0.552" fill="#ff8c51"/>
    </g>
    <g id="Group_446" data-name="Group 446" transform="translate(33.655 28.69)">
      <circle id="Ellipse_36" data-name="Ellipse 36" cx="0.552" cy="0.552" r="0.552" fill="#ff8c51"/>
    </g>
    <g id="Group_447" data-name="Group 447" transform="translate(29.241 28.69)">
      <circle id="Ellipse_37" data-name="Ellipse 37" cx="0.552" cy="0.552" r="0.552" transform="translate(0)" fill="#ff8c51"/>
    </g>
  </g>
</svg>
