<svg xmlns="http://www.w3.org/2000/svg" width="22.054" height="32" viewBox="0 0 22.054 32">
  <g id="child" transform="translate(-72.108)">
    <g id="Group_389" data-name="Group 389" transform="translate(73.204 0)">
      <path id="Path_1444" data-name="Path 1444" d="M89.1,12.138A44.119,44.119,0,0,1,88,6.069c0-3.333,2.759-3.31,2.759-3.31h0C92.4.012,98.484,0,98.484,0l.552,1.1A31.964,31.964,0,0,1,106.208,0a7.53,7.53,0,0,1,1.1,2.759c.643,3.43-.552,9.379-.552,9.379Z" transform="translate(-88.001)" fill="#734a3e"/>
    </g>
    <g id="Group_390" data-name="Group 390" transform="translate(73.204 0)">
      <path id="Path_1445" data-name="Path 1445" d="M98.484,0s-6.1,0-7.724,2.758h0S88,2.736,88,6.069a44.119,44.119,0,0,0,1.1,6.069h3.561l3.611-4.966A45.793,45.793,0,0,0,106.208,0a31.964,31.964,0,0,0-7.172,1.1Z" transform="translate(-88.001)" fill="#623f33"/>
    </g>
    <path id="Path_1446" data-name="Path 1446" d="M94.161,29.164l-.05-.451a.325.325,0,0,0-.359-.287l-.028,0-.485-3.877a2.207,2.207,0,0,0-1.492-1.82l-3.173-1.058.079-.158-1.2-.8a.552.552,0,0,0-.765.153l-.169.253a1.1,1.1,0,0,1-.077-.4V18.942l2.377-.99A3.31,3.31,0,0,0,90.86,14.9v-.552a1.655,1.655,0,0,0,1.21-2.784c.278-1.575.967-6.019.445-8.8A7.53,7.53,0,0,0,91.412,0a31.964,31.964,0,0,0-7.172,1.1L83.688,0s-6.1,0-7.724,2.758h-.048l-.044,0-.027,0-.1.01-.079.01L75.58,2.8l-.1.019A2.73,2.73,0,0,0,73.3,5.091q-.013.062-.024.126-.033.192-.051.4t-.018.447c0,.121.007.261.019.415s.031.322.053.5q.007.054.014.109c.108.808.3,1.814.491,2.715l.026.122c.129.607.254,1.159.347,1.558l.023.1a1.655,1.655,0,0,0,1.234,2.758V14.9a3.31,3.31,0,0,0,2.037,3.056l2.377.99v1.779a1.1,1.1,0,0,1-.077.4l-.169-.253a.552.552,0,0,0-.765-.153l-1.2.8.079.158-3.173,1.058a2.207,2.207,0,0,0-1.492,1.82l-.485,3.877-.028,0a.325.325,0,0,0-.359.287l-.05.451a.325.325,0,0,0,.287.359l.807.09V30.9a1.1,1.1,0,0,0,1.1,1.1H91.963a1.1,1.1,0,0,0,1.1-1.1V29.612l.807-.09A.325.325,0,0,0,94.161,29.164Z" transform="translate(-0.001)" fill="#f6b47b"/>
    <path id="Path_1447" data-name="Path 1447" d="M98.622,315.383a2.207,2.207,0,0,0-1.492-1.82l-3.569-1.19c-.52,1.172-3.388,2.181-3.388,2.181l-1.1,1.1s-1.017,0-1.1,0l-1.1-1.1s-2.868-1.009-3.387-2.181l-3.569,1.19a2.207,2.207,0,0,0-1.492,1.82l-.525,4.2,4.559.491v2.759H94.587v-2.759h4.621Z" transform="translate(-5.383 -290.83)" fill="#00c8b6"/>
    <g id="Group_391" data-name="Group 391" transform="translate(73.204 0)">
      <path id="Path_1448" data-name="Path 1448" d="M89.1,12.138A44.119,44.119,0,0,1,88,6.069c0-3.333,2.759-3.31,2.759-3.31h0C92.357.046,98.484,0,98.484,0l.552,1.1A31.964,31.964,0,0,1,106.208,0a7.53,7.53,0,0,1,1.1,2.759c.643,3.43-.552,9.379-.552,9.379Z" transform="translate(-88.001)" fill="#734a3e"/>
    </g>
    <g id="Group_392" data-name="Group 392" transform="translate(73.204 0)">
      <path id="Path_1449" data-name="Path 1449" d="M98.484,0s-6.1,0-7.724,2.758h0S88,2.736,88,6.069a44.119,44.119,0,0,0,1.1,6.069h3.561l3.611-4.966A45.793,45.793,0,0,0,106.208,0a31.964,31.964,0,0,0-7.172,1.1Z" transform="translate(-88.001)" fill="#623f33"/>
    </g>
    <g id="Group_393" data-name="Group 393" transform="translate(79.272 18.897)">
      <path id="Path_1450" data-name="Path 1450" d="M183.158,274h-6.621v1.825a1.094,1.094,0,0,1-.553.942A7.492,7.492,0,0,0,183.158,274Z" transform="translate(-175.984 -274.001)" fill="#e2a071"/>
    </g>
    <path id="Path_1451" data-name="Path 1451" d="M113.1,107.862v-1.1A2.759,2.759,0,0,0,110.346,104h-9.931a2.759,2.759,0,0,0-2.759,2.759v1.1a1.655,1.655,0,1,0,0,3.31v.552a3.31,3.31,0,0,0,2.037,3.056l3.565,1.485a5.517,5.517,0,0,0,2.122.424h0a5.518,5.518,0,0,0,2.122-.424l3.565-1.485a3.31,3.31,0,0,0,2.037-3.056v-.552a1.655,1.655,0,1,0,0-3.31Z" transform="translate(-22.245 -96.828)" fill="#fdc88e"/>
    <g id="Group_394" data-name="Group 394" transform="translate(78.721 11.586)">
      <path id="Path_1452" data-name="Path 1452" d="M168.553,169.655h0A.553.553,0,0,1,168,169.1v-.552a.553.553,0,0,1,.552-.552h0a.553.553,0,0,1,.552.552v.552A.553.553,0,0,1,168.553,169.655Z" transform="translate(-168.001 -168)" fill="#623f33"/>
    </g>
    <g id="Group_395" data-name="Group 395" transform="translate(86.445 11.586)">
      <path id="Path_1453" data-name="Path 1453" d="M280.553,169.655h0A.553.553,0,0,1,280,169.1v-.552a.553.553,0,0,1,.552-.552h0a.553.553,0,0,1,.552.552v.552A.553.553,0,0,1,280.553,169.655Z" transform="translate(-280.001 -168)" fill="#623f33"/>
    </g>
    <g id="Group_397" data-name="Group 397" transform="translate(80.376 15.448)">
      <g id="Group_396" data-name="Group 396" transform="translate(0)">
        <path id="Path_1454" data-name="Path 1454" d="M194.759,225.669a4.6,4.6,0,0,1-2.517-.662.552.552,0,1,1,.621-.912,4.053,4.053,0,0,0,3.793,0,.552.552,0,1,1,.621.912A4.6,4.6,0,0,1,194.759,225.669Z" transform="translate(-192 -223.998)" fill="#e2a071"/>
      </g>
    </g>
    <g id="Group_398" data-name="Group 398" transform="translate(72.455 23.46)">
      <path id="Path_1455" data-name="Path 1455" d="M81.755,346.366v-1.249a2.207,2.207,0,0,0-.539-1.445l-3.036-3.5a2.2,2.2,0,0,0-.46,1.093l-.576,4.61C78.022,345.923,80.356,346.2,81.755,346.366Z" transform="translate(-77.144 -340.168)" fill="#00c8b6"/>
    </g>
    <g id="Group_399" data-name="Group 399" transform="translate(72.108 28.424)">
      <path id="Path_1456" data-name="Path 1456" d="M77.066,412.659l-4.547-.505a.325.325,0,0,0-.359.287l-.05.451a.325.325,0,0,0,.287.359l4.669.519Z" transform="translate(-72.108 -412.152)" fill="#d6343a"/>
    </g>
    <g id="Group_400" data-name="Group 400" transform="translate(89.204 23.46)">
      <path id="Path_1457" data-name="Path 1457" d="M320,346.366v-1.249a2.207,2.207,0,0,1,.539-1.445l3.036-3.5a2.2,2.2,0,0,1,.46,1.093l.576,4.61C323.734,345.923,321.4,346.2,320,346.366Z" transform="translate(-320.001 -340.168)" fill="#00c8b6"/>
    </g>
    <g id="Group_401" data-name="Group 401" transform="translate(89.204 28.424)">
      <path id="Path_1458" data-name="Path 1458" d="M320,412.659l4.547-.505a.325.325,0,0,1,.359.287l.05.451a.325.325,0,0,1-.287.359l-4.669.519Z" transform="translate(-320.001 -412.152)" fill="#d6343a"/>
    </g>
    <g id="Group_402" data-name="Group 402" transform="translate(77.618 20.627)">
      <path id="Path_1459" data-name="Path 1459" d="M153.962,299.339l1.9,2.851-1.655,2.207L152,299.983l1.2-.8A.552.552,0,0,1,153.962,299.339Z" transform="translate(-152.001 -299.093)" fill="#00c8b6"/>
    </g>
    <g id="Group_403" data-name="Group 403" transform="translate(84.79 20.627)">
      <path id="Path_1460" data-name="Path 1460" d="M257.9,299.339,256,302.19l1.655,2.207,2.207-4.414-1.2-.8A.552.552,0,0,0,257.9,299.339Z" transform="translate(-256.001 -299.093)" fill="#00c8b6"/>
    </g>
    <g id="Group_404" data-name="Group 404" transform="translate(82.583 24.828)">
      <path id="Path_1461" data-name="Path 1461" d="M224.553,364.414h0a.552.552,0,0,1-.552-.552V360h1.1v3.862A.552.552,0,0,1,224.553,364.414Z" transform="translate(-224.001 -360)" fill="#00c8b6"/>
    </g>
    <path id="Path_1462" data-name="Path 1462" d="M100.552,113.635a2.586,2.586,0,0,1-.689-1.767v-6.33c1.938-.215,6.161-.728,10.483-1.538h-9.931a2.593,2.593,0,0,0-.552.061v-.005a2.759,2.759,0,0,0-2.207,2.7v1.1a1.655,1.655,0,1,0,0,3.31v.552a3.31,3.31,0,0,0,2.037,3.056l3.565,1.485a5.528,5.528,0,0,0,.533.19A23.025,23.025,0,0,1,100.552,113.635Z" transform="translate(-22.245 -96.827)" fill="#f6b47b"/>
  </g>
</svg>
