<svg xmlns="http://www.w3.org/2000/svg" xmlns:xlink="http://www.w3.org/1999/xlink" width="24" height="24" viewBox="0 0 24 24"><defs><style>.a,.b{fill:#afafaf;}.a{stroke:#707070;}.c{clip-path:url(#a);}.d{clip-path:url(#b);}</style><clipPath id="a"><rect class="a" width="24" height="24" transform="translate(91 198)"/></clipPath><clipPath id="b"><rect class="b" width="24" height="24"/></clipPath></defs><g class="c" transform="translate(-91 -198)"><g class="d" transform="translate(91 198)"><path class="b" d="M12,0a12.013,12.013,0,1,0,8.482,3.519A12,12,0,0,0,12,0Zm0,22a10.011,10.011,0,1,1,7.068-2.932A10,10,0,0,1,12,22Z"/><path class="b" d="M12,6a1,1,0,0,0-1,1v4.325L7.629,13.437a1,1,0,0,0,1.062,1.7l3.84-2.4A1,1,0,0,0,13,11.879V7a1,1,0,0,0-1-1Z"/></g></g></svg>