<svg xmlns="http://www.w3.org/2000/svg" xmlns:xlink="http://www.w3.org/1999/xlink" width="24" height="24" viewBox="0 0 24 24"><defs><style>.a,.b{fill:#231f20;}.a{stroke:#707070;}.c{clip-path:url(#a);}.d{clip-path:url(#b);}</style><clipPath id="a"><rect class="a" width="24" height="24" transform="translate(24 441)"/></clipPath><clipPath id="b"><rect class="b" width="24" height="24"/></clipPath></defs><g class="c" transform="translate(-24 -441)"><g class="d" transform="translate(24 441)"><path class="b" d="M20,0H4A4,4,0,0,0,0,4V16a4,4,0,0,0,4,4H6.9l4.451,3.763a1,1,0,0,0,1.292,0L17.1,20H20a4,4,0,0,0,4-4V4a4,4,0,0,0-4-4Zm2,16a2,2,0,0,1-2,2H17.1a2,2,0,0,0-1.291.473L12,21.69,8.193,18.473A2,2,0,0,0,6.9,18H4a2,2,0,0,1-2-2V4A2,2,0,0,1,4,2H20a2,2,0,0,1,2,2Z"/><path class="b" d="M7,7h5a1,1,0,0,0,0-2H7A1,1,0,1,0,7,7Z"/><path class="b" d="M17,9H7a1,1,0,0,0,0,2H17a1,1,0,0,0,0-2Z"/><path class="b" d="M17,13H7a1,1,0,0,0,0,2H17a1,1,0,0,0,0-2Z"/></g></g></svg>