<svg xmlns="http://www.w3.org/2000/svg" xmlns:xlink="http://www.w3.org/1999/xlink" width="24" height="24" viewBox="0 0 24 24"><defs><style>.a,.c{fill:#ea4335;}.a{stroke:#707070;}.b{clip-path:url(#a);}</style><clipPath id="a"><rect class="a" width="24" height="24" transform="translate(315 709)"/></clipPath></defs><g class="b" transform="translate(-315 -709)"><g transform="translate(315 709)"><path class="c" d="M21,4H17.9A5.009,5.009,0,0,0,13,0H11A5.009,5.009,0,0,0,6.1,4H3A1,1,0,1,0,3,6H4V19a5.006,5.006,0,0,0,5,5h6a5.006,5.006,0,0,0,5-5V6h1a1,1,0,0,0,0-2ZM11,2h2a3.006,3.006,0,0,1,2.829,2H8.171A3.006,3.006,0,0,1,11,2Zm7,17a3,3,0,0,1-3,3H9a3,3,0,0,1-3-3V6H18Z"/><path class="c" d="M10,18a1,1,0,0,0,1-1V11a1,1,0,0,0-2,0v6a1,1,0,0,0,1,1Z"/><path class="c" d="M14,18a1,1,0,0,0,1-1V11a1,1,0,0,0-2,0v6a1,1,0,0,0,1,1Z"/></g></g></svg>