<svg xmlns="http://www.w3.org/2000/svg" xmlns:xlink="http://www.w3.org/1999/xlink" width="24" height="24" viewBox="0 0 24 24"><defs><style>.a,.c{fill:#afafaf;}.a{stroke:#707070;}.b{clip-path:url(#a);}</style><clipPath id="a"><rect class="a" width="24" height="24" transform="translate(36 843)"/></clipPath></defs><g class="b" transform="translate(-36 -843)"><path class="c" d="M23.875,7.543A3.881,3.881,0,0,0,22.057,5.23L14.683,1.717A5.226,5.226,0,0,0,9.4,1.672L1.943,5.23c-.028.014-.057.029-.084.045a3.691,3.691,0,0,0,.084,6.455L4,12.71v4.9a5.007,5.007,0,0,0,3.519,4.778A15.559,15.559,0,0,0,12,23a15.556,15.556,0,0,0,4.481-.607A5.007,5.007,0,0,0,20,17.615V12.708l2-.956V20a1,1,0,0,0,2,0V8A.971.971,0,0,0,23.875,7.543ZM18,17.615a3,3,0,0,1-2.1,2.863A13.593,13.593,0,0,1,12,21a13.593,13.593,0,0,1-3.9-.522A3,3,0,0,1,6,17.615V13.663l3.317,1.58a5.272,5.272,0,0,0,2.705.739,5,5,0,0,0,2.577-.694L18,13.663Zm3.2-7.69-7.542,3.6a3.294,3.294,0,0,1-3.39-.045L2.889,9.97a1.692,1.692,0,0,1-.037-2.958l7.5-3.58a3.3,3.3,0,0,1,3.39.045L21.111,6.99A1.728,1.728,0,0,1,22,8.48a1.7,1.7,0,0,1-.8,1.445Z" transform="translate(36 843.011)"/></g></svg>