<svg xmlns="http://www.w3.org/2000/svg" width="6.432" height="11.026" viewBox="0 0 6.432 11.026"><g transform="translate(-26.667 -9.999)"><path d="M41.378,10a1.378,1.378,0,1,0,1.378,1.378A1.378,1.378,0,0,0,41.378,10Zm0,1.838a.459.459,0,1,1,.459-.459A.459.459,0,0,1,41.378,11.837Z" transform="translate(-11.495)" fill="#afafaf"/><path d="M29.761,68.21l-2.444,2.442-.65-.65,2.444-2.443Z" transform="translate(0 -49.628)" fill="#afafaf"/><path d="M33.333,39.882h.919v-1l.919-.919v2.3L37.008,42.1v1.917h.919V42.179a1.279,1.279,0,0,0-.325-.784l-1.513-1.514V36.666h-.919l-1.513,1.513a1.278,1.278,0,0,0-.325.784Z" transform="translate(-5.747 -22.992)" fill="#afafaf"/><path d="M59.751,44.383l.65-.65-2.067-2.067v1.3Z" transform="translate(-27.302 -27.303)" fill="#afafaf"/></g></svg>