<svg xmlns="http://www.w3.org/2000/svg" xmlns:xlink="http://www.w3.org/1999/xlink" width="24" height="24" viewBox="0 0 24 24"><defs><style>.a,.b{fill:#afafaf;}.a{stroke:#707070;}.c{clip-path:url(#a);}.d{clip-path:url(#b);}</style><clipPath id="a"><rect class="a" width="24" height="24" transform="translate(0 0.464)"/></clipPath><clipPath id="b"><rect class="b" width="24" height="24" transform="translate(0 0.464)"/></clipPath></defs><g class="c" transform="translate(0 -0.464)"><g class="d"><path class="b" d="M20.44.953l-12.3,12.3a5.009,5.009,0,0,0-1.477,3.565V18.17a1.009,1.009,0,0,0,1.009,1.009H9.03A5.009,5.009,0,0,0,12.6,17.7l12.3-12.3a3.152,3.152,0,0,0,0-4.452,3.222,3.222,0,0,0-4.452,0Zm3.026,3.026-12.3,12.3a3.046,3.046,0,0,1-2.139.886H8.684v-.346a3.046,3.046,0,0,1,.886-2.139l12.3-12.3a1.158,1.158,0,0,1,1.6,0,1.133,1.133,0,0,1,0,1.6Z" transform="translate(-1.624 -0.48)"/><path class="b" d="M23.2,9.056a1.009,1.009,0,0,0-1.009,1.009v5.064H18.155a3.026,3.026,0,0,0-3.026,3.026V22.19H5.043a3.026,3.026,0,0,1-3.026-3.026V5.043A3.026,3.026,0,0,1,5.043,2.017h9.12a1.009,1.009,0,0,0,0-2.017H5.043A5.049,5.049,0,0,0,0,5.043V19.164a5.049,5.049,0,0,0,5.043,5.043H16.484A5.01,5.01,0,0,0,20.05,22.73l2.679-2.681a5.011,5.011,0,0,0,1.478-3.565V10.065A1.009,1.009,0,0,0,23.2,9.056ZM18.624,21.3a3,3,0,0,1-1.478.807V18.155a1.009,1.009,0,0,1,1.009-1.009h3.959a3.042,3.042,0,0,1-.807,1.477Z" transform="translate(0 -0.465)"/></g></g></svg>