<svg xmlns="http://www.w3.org/2000/svg" xmlns:xlink="http://www.w3.org/1999/xlink" width="48" height="48" viewBox="0 0 48 48"><defs><clipPath id="a"><rect width="24" height="24" transform="translate(54 619)" fill="#00c8b6" stroke="#707070" stroke-width="1"/></clipPath><clipPath id="b"><rect width="24" height="24" fill="#00c8b6"/></clipPath></defs><g transform="translate(-42 -619)"><circle cx="24" cy="24" r="24" transform="translate(42 619)" fill="#00c8b6" opacity="0.1"/><g transform="translate(0 12)" clip-path="url(#a)"><g transform="translate(54 619)" clip-path="url(#b)"><path d="M12,6a4,4,0,1,0,2.828,1.172A4,4,0,0,0,12,6Zm0,6a2,2,0,1,1,1.414-.586A2,2,0,0,1,12,12Z" fill="#00c8b6"/><path d="M12,24a5.271,5.271,0,0,1-4.311-2.2c-3.811-5.257-5.744-9.209-5.744-11.747a10.055,10.055,0,0,1,20.11,0c0,2.538-1.933,6.49-5.744,11.747A5.271,5.271,0,0,1,12,24ZM12,2.181a7.883,7.883,0,0,0-7.874,7.874c0,2.01,1.893,5.727,5.329,10.466a3.145,3.145,0,0,0,5.09,0c3.436-4.739,5.329-8.456,5.329-10.466A7.883,7.883,0,0,0,12,2.181Z" fill="#00c8b6"/></g></g></g></svg>