<svg xmlns="http://www.w3.org/2000/svg" xmlns:xlink="http://www.w3.org/1999/xlink" width="24" height="24" viewBox="0 0 24 24"><defs><style>.a,.b{fill:#afafaf;}.a{stroke:#707070;}.c{clip-path:url(#a);}.d{clip-path:url(#b);}</style><clipPath id="a"><rect class="a" width="24" height="24" transform="translate(36 882)"/></clipPath><clipPath id="b"><rect class="b" width="24" height="24"/></clipPath></defs><g class="c" transform="translate(-36 -882)"><g class="d" transform="translate(36 882)"><path class="b" d="M19,2H18V1a1,1,0,0,0-2,0V2H8V1A1,1,0,1,0,6,1V2H5A5.006,5.006,0,0,0,0,7V19a5.006,5.006,0,0,0,5,5H19a5.006,5.006,0,0,0,5-5V7a5.006,5.006,0,0,0-5-5ZM2,7A3,3,0,0,1,5,4H19a3,3,0,0,1,3,3V8H2ZM19,22H5a3,3,0,0,1-3-3V10H22v9a3,3,0,0,1-3,3Z"/><path class="b" d="M12,16.5A1.5,1.5,0,1,0,10.5,15,1.5,1.5,0,0,0,12,16.5Z"/><path class="b" d="M7,16.5A1.5,1.5,0,1,0,5.5,15,1.5,1.5,0,0,0,7,16.5Z"/><path class="b" d="M17,16.5A1.5,1.5,0,1,0,15.5,15,1.5,1.5,0,0,0,17,16.5Z"/></g></g></svg>