<svg xmlns="http://www.w3.org/2000/svg" width="25.513" height="24.355" viewBox="0 0 25.513 24.355">
  <g id="discount-svgrepo-com_1_" data-name="discount-svgrepo-com (1)" transform="translate(0 -4.753)">
    <path id="Path_43130" data-name="Path 43130" d="M25.256,16.294l-2.521-2.606.508-3.591A.914.914,0,0,0,22.5,9.069l-3.572-.626-1.7-3.2a.914.914,0,0,0-1.209-.393L12.757,6.439,9.5,4.846a.914.914,0,0,0-1.209.393l-1.7,3.2-3.572.626A.914.914,0,0,0,2.271,10.1l.508,3.591L.257,16.294a.914.914,0,0,0,0,1.272l2.521,2.606-.508,3.591a.915.915,0,0,0,.747,1.029l3.572.627,1.7,3.2a.914.914,0,0,0,1.209.393l3.258-1.592,3.258,1.592a.914.914,0,0,0,1.209-.393l1.7-3.2,3.572-.627a.914.914,0,0,0,.747-1.029l-.508-3.591,2.522-2.606A.914.914,0,0,0,25.256,16.294ZM21.11,19.222a.915.915,0,0,0-.248.764l.447,3.158-3.141.551a.915.915,0,0,0-.65.472l-1.495,2.817-2.865-1.4a.914.914,0,0,0-.8,0l-2.865,1.4L8,24.167a.915.915,0,0,0-.65-.472l-3.141-.551.447-3.158a.914.914,0,0,0-.248-.764L2.187,16.93,4.4,14.639a.914.914,0,0,0,.248-.764l-.447-3.158,3.141-.551A.915.915,0,0,0,8,9.695L9.49,6.878l2.865,1.4a.914.914,0,0,0,.8,0l2.865-1.4,1.495,2.817a.914.914,0,0,0,.65.472l3.141.551-.447,3.158a.914.914,0,0,0,.248.764l2.217,2.291Z" fill="#2cb742"/>
    <path id="Path_43131" data-name="Path 43131" d="M64.871,67.085a2.214,2.214,0,1,0-2.214-2.214A2.216,2.216,0,0,0,64.871,67.085Zm0-2.965a.751.751,0,1,1-.751.751A.752.752,0,0,1,64.871,64.12Z" transform="translate(-55.018 -50.845)" fill="#2cb742"/>
    <path id="Path_43132" data-name="Path 43132" d="M75.7,66.871a.731.731,0,0,0-1.034,0l-7.8,7.8A.731.731,0,0,0,67.907,75.7l7.8-7.8A.732.732,0,0,0,75.7,66.871Z" transform="translate(-58.531 -54.357)" fill="#2cb742"/>
    <path id="Path_43133" data-name="Path 43133" d="M112.516,110.3a2.214,2.214,0,1,0,2.214,2.214A2.216,2.216,0,0,0,112.516,110.3Zm0,2.965a.751.751,0,1,1,.751-.751A.752.752,0,0,1,112.516,113.266Z" transform="translate(-96.855 -92.681)" fill="#2cb742"/>
  </g>
</svg>
