<svg id="Group_11493" data-name="Group 11493" xmlns="http://www.w3.org/2000/svg" width="44" height="44" viewBox="0 0 44 44">
  <path id="Ellipse_248" data-name="Ellipse 248" d="M22,0h1.045l.035,0h.106l.035,0h.053l.034,0h.053l.034,0h.018l.035,0H23.5l.035,0h.018l.035,0,.035,0h.018l.035,0h.053l.034,0H23.8l.018,0h.034l.018,0,.035,0h.017l.017,0,.018,0h.017l.018,0,.018,0,.035,0,.034,0,.017,0,.035,0,.018,0,.017,0,.018,0,.034,0,.018,0,.016,0,.018,0,.018,0,.017,0,.018,0,.034,0,.018,0,.017,0,.018,0,.016,0,.018,0,.018,0,.034,0,.017,0,.017,0,.018,0,.034,0,.018,0,.016,0,.019,0,.017,0,.017,0,.018,0,.016,0,.018,0,.017,0,.016,0,.018,0,.016,0,.018,0,.018,0,.016,0,.018,0,.017,0,.017,0,.018,0,.015,0,.018,0,.018,0,.016,0,.018,0,.017,0,.017,0,.018,0,.015,0,.019,0,.017,0,.016,0,.018,0,.016,0,.017,0,.018,0,.015,0,.019,0,.017,0,.016,0,.018,0,.016,0,.018,0,.018,0,.015,0,.019,0,.017,0,.016,0,.018,0,.015,0,.018,0,.018,0,.016,0,.019,0,.017,0,.016,0,.018,0,.016,0,.018,0,.018,0,.015,0,.019,0,.018,0,.015,0,.019,0,.014,0,.019,0,.019,0,.014,0,.019,0,.018,0,.015,0,.02,0,.032.006.02,0,.013,0,.02,0,.032.006.02,0h0l.031.006h0l.051.009h0l.083.016h0q.668.127,1.321.293l-.452,1.777A20.249,20.249,0,0,0,22,1.833V0ZM32.548,2.689a22.018,22.018,0,0,1,2.5,1.6h0l.069.051h0l.051.038h0l.05.038h0l.016.012h0l.034.025h0l.015.011,0,0,.033.025h0l.016.012,0,0,.015.012h0l.033.025,0,0,.014.011,0,0,.032.025,0,0,.014.011,0,0,.032.025h0l.015.012,0,0,.015.012h0l.032.025,0,0,.014.011h0l.033.026h0l.014.011,0,0,.016.012h0l.017.013h0l.015.012,0,0,.014.011,0,0,.032.025,0,0,.014.011,0,0,.032.026h0l.015.012,0,0,.032.026h0l.015.012,0,0,.014.012h0l.032.026,0,0,.014.012,0,0,.032.026h0L35.962,5l0,0,.048.039h0l.015.013h0l.032.027h0l.015.013h0l.049.041h0l.049.041h0l.049.041h0q.392.333.769.683l-1.25,1.341A20.243,20.243,0,0,0,31.668,4.3Zm7.966,7.421a21.913,21.913,0,0,1,2.369,4.948l-1.74.578A20.09,20.09,0,0,0,38.972,11.1l1.542-.992ZM43.946,20.44c0,.055.007.11.011.164h0l0,.033v0l0,.031v.19h0v.014l0,.033v0l0,.033v.014h0v.157h0v.036h0v.022h0v.7c0,.005,0,.01,0,.016v.017s0,0,0,0v.036c0,.005,0,.011,0,.016v0s0,.009,0,.014,0,0,0,0,0,.011,0,.016h0c0,.006,0,.011,0,.017s0,0,0,.006v.035s0,.007,0,.01v.017s0,0,0,.006v.3h0v.265h0v.37l0,.034v.247h0v.106l0,.034v.105h0v.017h0V23.8l0,.034v.1h0l0,.034v.088l0,.034v.088l0,.033V24.3l0,.015h0l0,.034v.071l0,.014v0l0,.034h0l0,.015v.071l0,.033v0l0,.014v.071l0,.015h0l0,.033v0l0,.013v.071l0,.033v0l0,.013v.055l0,.011v0l0,.033v0l0,.014v0l0,.011v.055l0,.011v.005l0,.016v0l0,.012v.072l0,.011v0l0,.013v0l0,.015v.006l0,.01v.1l0,.015v.105l0,.014v.1l-.006.035v.006l0,.01v.006l0,.01v.006l0,.009v.007l0,.009v.007l0,.009V25.7l-.006.038v0l0,.011v0l0,.011v0l0,.01v.005l0,.011v0l0,.011v0l-.01.056v0l0,.013v0l0,.012v0l0,.012h0l-1.8-.324A20.367,20.367,0,0,0,42.167,22c0-.477-.017-.959-.05-1.432l1.829-.128Zm-3.6,9.95,1.667.764q-.339.74-.731,1.451h0q-.08.146-.163.29h0l-.016.029h0l-.016.029h0l-.075.129h0l-.059.1h0l-.034.057h0l-.094.156h0l-.017.028h0l-.06.1h0l-.1.155h0l-.1.154h0l-.018.028h0l-.036.055h0l-.1.153h0l-.046.069h0l-.018.027h0l-.018.027h0l-.018.027h0l-.018.027h0l-.009.013h0l-.009.013h0l-.009.013h0l-.018.026h0l-.018.026h0l-.018.026h0l-.009.013h0l-.009.013h0l-.009.013h0l-.009.013h0l-.009.013h0l-.018.026v0l-.018.025v0l-.017.025,0,0-.009.012h0l-.008.012v0l-.009.012h0l-.008.012v0l-.009.013h0l-.009.013h0l-.009.013v0l-.008.012h0l-.009.013v0l-.018.025v0l-.009.012h0l-.008.012v0l-.009.012v0l-.008.012h0l-.009.012,0,0-.008.011v0l-.008.012,0,0-.008.011h0l-.008.012,0,0-.008.012h0l-.008.011,0,0-.008.012v0l-.007.01,0,0-.008.011,0,0-.008.01,0,0-.008.012,0,0-.007.009,0,0-.008.011,0,0-.007.009,0,0-.008.011,0,0-.007.009,0,0-.006.009,0,0-.008.011,0,0-.006.009,0,0L39.748,35l0,0-.006.008,0,0-.007.01,0,0-.005.007,0,0-.007.01,0,.005,0,.007,0,.005-.006.009,0,.005-.005.007-.006.007,0,.006,0,.006,0,.006-.006.009,0,.006,0,.006-.006.008-.006.008,0,0-.01.013,0,0,0,.006,0,0-.007.01,0,.005,0,.006,0,0-.008.01,0,0,0,.007,0,0-.008.011,0,0-.005.007,0,0-.008.011,0,0,0,.006,0,0-.008.011,0,0-.005.007h0l-.011.015,0,0-.018.023,0,0-.018.024h0l-.012.016h0l-.019.025h0l-.019.025h0q-.144.186-.291.369L37.7,34.663A20.185,20.185,0,0,0,40.345,30.389Zm-6.272,7.766,1.1,1.468a22.018,22.018,0,0,1-3.1,1.94h0l-.029.015h0l-.028.015h0l-.029.015h0l-.044.022h0l-.028.014h0l-.028.014h0l-.014.007h0l-.014.007h0l-.014.007h0l-.013.006h0l-.014.007h0l-.012.006h0l-.013.006,0,0-.012.006h0l-.013.007h0l-.013.007h0l-.013.006,0,0-.013.006h0l-.011.006,0,0-.013.006h0l-.014.007-.016.008-.013.007-.012.006L31.6,41.8l-.015.008-.014.007-.015.007-.014.007-.015.007-.017.008-.013.006-.016.008-.013.006-.017.008-.013.006-.012.006-.013.006,0,0L31.4,41.9l-.012.006h0l-.014.007,0,0-.026.012h0l-.028.013h0l-.029.014h0q-.43.2-.871.383l-.7-1.694A20.152,20.152,0,0,0,34.073,38.155Zm-9.217,3.811.257,1.815-.214.029-.035,0-.034,0-.014,0-.021,0-.014,0-.019,0-.016,0-.014,0-.019,0-.016,0-.019,0-.016,0-.016,0-.019,0-.015,0-.019,0-.016,0-.018,0-.017,0-.035,0-.034,0-.017,0-.035,0-.035,0q-.83.09-1.678.117H21.382l-.112,0H21.1q-.744-.03-1.475-.108l.2-1.823A20.558,20.558,0,0,0,24.856,41.966ZM10.481,38.556a20.121,20.121,0,0,0,4.45,2.338l-.643,1.717q-.557-.208-1.1-.445h0l-.137-.061h0l-.076-.034h0l-.029-.013h0l-.028-.013h0l-.028-.013h0l-.029-.013h0l-.015-.007h0L12.826,42h0l-.014-.006h0l-.029-.013h0l-.028-.013h0l-.014-.007h0l-.013-.006h0l-.014-.006h0l-.013-.006h0l-.014-.007h0l-.028-.013h0l-.028-.013h0l-.028-.013h0l-.014-.007h0l-.013-.006h0l-.014-.007h0l-.013-.006h0l-.014-.007h0l-.014-.006h0l-.014-.007h0l-.014-.007h0l-.013-.006h0l-.013-.006-.014-.007h0L12.4,41.8h0l-.014-.007h0l-.014-.007h0l-.014-.007h0l-.014-.007h0l-.028-.014h0l-.028-.014h0l-.014-.007h0l-.014-.007h0l-.014-.007h0l-.014-.007h0l-.014-.007h0l-.028-.014h0l-.029-.014h0l-.029-.015h0l-.015-.007h0l-.059-.03h0l-.029-.015h0l-.029-.015h0A22,22,0,0,1,9.433,40.06ZM3.95,31.006a20.215,20.215,0,0,0,2.793,4.183l-1.386,1.2a22.04,22.04,0,0,1-3.046-4.562ZM.015,21.184l1.832.067c-.009.248-.014.5-.014.749a20.308,20.308,0,0,0,.451,4.265L.492,26.65q-.042-.193-.08-.387v0l0-.015v0l0-.014v0l0-.012v-.005l0-.012v-.006l0-.011v-.006l0-.011v-.007l0-.01v-.007l0-.01,0-.008,0-.009,0-.008,0-.009,0-.009v-.008l0-.009,0-.008,0-.009V26.04l0-.009v-.007l0-.011v0L.35,25.93v0l0-.014v0l0-.013v0l0-.014v0l0-.014v0l0-.014v0l0-.014v0l0-.014v0l0-.014v0l0-.015v0l0-.015v0l0-.015h0q-.173-1.01-.253-2.048h0v-.017h0v-.017h0V23.64h0v-.017h0c-.006-.087-.012-.174-.018-.261h0v-.175h0v-.017h0c0-.041,0-.082-.006-.123h0v-.266c0-.023,0-.045,0-.068h0v-.665s0,0,0-.008,0-.008,0-.013v-.006c0-.006,0-.012,0-.018s0-.011,0-.016,0,0,0,0,0-.008,0-.013v0c0-.006,0-.01,0-.016v-.02c0-.011,0-.022,0-.033v-.019c0-.012,0-.023,0-.034H0q0-.329.014-.655Zm3.079-10.44,1.574.939a20.066,20.066,0,0,0-2.015,4.6L.895,15.77a21.859,21.859,0,0,1,1.682-4.11h0l.015-.028v0l.007-.014h0l.007-.013,0,0,.007-.012,0,0,.005-.009,0,0,.006-.011,0,0,0-.007,0-.006.005-.01,0-.006,0-.006.006-.012,0,0,0-.007,0,0,.007-.014v0l.014-.026v0Q2.886,11.091,3.093,10.744ZM10.8,3.058l.934,1.577A20.267,20.267,0,0,0,7.762,7.718l-1.294-1.3Q7.06,5.829,7.7,5.284h0l.049-.042h0l.016-.014h0l.049-.041h0l.048-.041h0l.048-.04h0l.015-.013h0l.032-.027h0l.015-.012,0,0,.048-.039,0,0L8.041,5h0l.032-.026,0,0,.014-.011,0,0,.031-.026,0,0,.013-.011,0,0L8.158,4.9h0l.016-.013h0l.014-.011,0,0,.014-.011,0,0,.016-.013h0l.014-.012,0,0,.012-.01,0,0,.031-.025,0,0,.012-.01,0,0,.013-.011,0,0,.016-.012,0,0,.012-.01,0,0,.012-.009,0,0,.015-.012,0,0,.013-.01,0,0,.011-.009,0,0,.015-.011h0l.015-.012.005,0,.01-.008.005,0,.011-.009,0,0L8.51,4.62l.005,0,.01-.008.006,0L8.541,4.6l.006,0,.014-.011,0,0,.011-.008.006,0,.01-.007.006,0,.012-.009,0,0,.013-.01.006,0,.009-.007.007-.005L8.659,4.5l.006,0,.014-.011.006,0,.009-.007L8.7,4.473l.009-.007.006,0,.014-.011.005,0,.01-.008.006,0,.009-.007.006,0,.011-.008.007,0L8.8,4.4l.007-.005.009-.007.007-.005.01-.007.005,0,.015-.011.006,0,.009-.007.007-.005.009-.007.006,0L8.9,4.321l.006,0,.01-.007L8.926,4.3,8.934,4.3l.007-.005.01-.007.01-.007.01-.007.007-.005.008-.006.007-.005L9,4.248l.007-.005.014-.01.008-.006.008-.006.008-.006.008-.006L9.063,4.2,9.07,4.2l.015-.011.007,0L9.1,4.177l.007-.005.009-.006.007,0,.015-.011.007-.005.008-.006.007-.005.008-.006.007-.005.012-.009.01-.007L9.206,4.1,9.213,4.1l.009-.006.007-.005.008-.006.009-.006.012-.009.008-.006.008-.006.007-.005.009-.006L9.3,4.036l.015-.011.007,0,.009-.006.006,0L9.344,4,9.35,4l.019-.014,0,0,.009-.006.007,0L9.4,3.965l.007,0,.009-.006.005,0,.018-.012.006,0,.009-.006.006,0,.009-.007.006,0L9.49,3.9l0,0,.01-.007.006,0,.01-.007.006,0,.023-.016h0l.009-.007.006,0,.01-.007.006,0,.01-.007,0,0,.019-.013.005,0,.01-.007.005,0,.01-.007,0,0,.019-.013,0,0,.01-.007.006,0L9.7,3.758l.006,0,.033-.022.006,0,.01-.006.006,0,.01-.007,0,0L9.792,3.7l.005,0,.01-.007.006,0,.01-.007,0,0,.021-.014,0,0,.011-.007,0,0,.011-.007,0,0,.035-.023,0,0L9.932,3.6l0,0,.036-.023,0,0,.011-.007,0,0L10,3.556l0,0,.024-.015,0,0,.011-.007,0,0,.011-.007,0,0,.036-.023,0,0,.011-.007,0,0,.036-.023,0,0,.011-.007,0,0,.011-.007h0l.038-.024,0,0,.011-.007,0,0,.037-.023,0,0,.011-.007,0,0,.037-.024,0,0,.011-.007,0,0,.012-.007h0l.038-.024,0,0,.012-.007,0,0,.038-.024,0,0,.012-.007,0,0,.039-.024h0l.012-.007,0,0,.012-.007h0l.04-.024,0,0,.012-.007,0,0,.039-.024h0l.013-.008h0l.04-.024h0l.013-.008h0l.055-.033h0l.013-.008h0ZM21.254.012l.061,1.832a20.172,20.172,0,0,0-4.966.791L15.836.875A21.865,21.865,0,0,1,18.106.344h0L18.19.329l.017,0h0L18.24.32h0l.032-.006.017,0h0l.032-.005.018,0,.016,0,.017,0,.018,0,.016,0,.018,0,.015,0,.018,0,.018,0,.015,0,.018,0,.016,0,.018,0,.018,0,.015,0,.018,0,.015,0,.018,0,.016,0,.018,0,.018,0,.015,0,.018,0,.015,0,.018,0,.019,0,.013,0,.02,0,.015,0,.019,0,.018,0h0l.013,0,.02,0h.01l.022,0,.03,0h0l.021,0L19,.2l.084-.011h0Q20.154.05,21.254.012Z" fill="#393939" opacity="0.3"/>
</svg>
