<svg xmlns="http://www.w3.org/2000/svg" width="24.809" height="24.292" viewBox="0 0 24.809 24.292"><defs><style>.a{fill:#00c8b6;}</style></defs><path class="a" d="M15.167,8.54l-3.561,5.243L9.352,12.312a.945.945,0,0,0-.775-.142.963.963,0,0,0-.654.427.992.992,0,0,0-.17.759,1.032,1.032,0,0,0,.46.641l3.1,2.016a.864.864,0,0,0,.266.142,1.174,1.174,0,0,0,.315.047.949.949,0,0,0,.46-.119.98.98,0,0,0,.388-.332l4.143-6.073a.916.916,0,0,0,.145-.759.878.878,0,0,0-.436-.641.968.968,0,0,0-.775-.142A.988.988,0,0,0,15.167,8.54ZM12.4,0A12.293,12.293,0,0,0,7.583.949,12.888,12.888,0,0,0,3.634,3.582,12.51,12.51,0,0,0,.969,7.425,11.608,11.608,0,0,0,0,12.146a11.608,11.608,0,0,0,.969,4.721,12.81,12.81,0,0,0,2.665,3.867,13.111,13.111,0,0,0,3.949,2.609,12.293,12.293,0,0,0,4.821.949,12.293,12.293,0,0,0,4.821-.949,12.8,12.8,0,0,0,3.925-2.609,12.6,12.6,0,0,0,2.689-3.867,11.608,11.608,0,0,0,.969-4.721,11.608,11.608,0,0,0-.969-4.721,12.306,12.306,0,0,0-2.689-3.843A12.587,12.587,0,0,0,17.226.949,12.293,12.293,0,0,0,12.4,0Zm0,22.276a10.137,10.137,0,0,1-4.022-.807A10.28,10.28,0,0,1,5.088,19.31a10.039,10.039,0,0,1-2.2-3.226,9.825,9.825,0,0,1,0-7.876,10.039,10.039,0,0,1,2.2-3.226A10.28,10.28,0,0,1,8.383,2.823a10.43,10.43,0,0,1,8.044,0,10.28,10.28,0,0,1,3.295,2.159,10.039,10.039,0,0,1,2.2,3.226,9.825,9.825,0,0,1,0,7.876,10.038,10.038,0,0,1-2.2,3.226,10.28,10.28,0,0,1-3.295,2.159A10.137,10.137,0,0,1,12.4,22.276Z"/></svg>