<svg xmlns="http://www.w3.org/2000/svg" xmlns:xlink="http://www.w3.org/1999/xlink" width="24" height="24" viewBox="0 0 24 24">
  <defs>
    <style>
      .cls-1, .cls-2 {
        fill: #231f20;
      }

      .cls-1 {
        stroke: #707070;
      }

      .cls-3 {
        clip-path: url(#clip-path);
      }

      .cls-4 {
        clip-path: url(#clip-path-2);
      }
    </style>
    <clipPath id="clip-path">
      <rect id="Rectangle_5852" data-name="Rectangle 5852" class="cls-1" width="24" height="24" transform="translate(135.28 794)"/>
    </clipPath>
    <clipPath id="clip-path-2">
      <rect id="Rectangle_5853" data-name="Rectangle 5853" class="cls-2" width="24" height="24"/>
    </clipPath>
  </defs>
  <g id="Mask_Group_1265" data-name="Mask Group 1265" class="cls-3" transform="translate(-135.28 -794)">
    <g id="fi-rr-download" class="cls-4" transform="translate(135.28 794)">
      <path id="Path_41733" data-name="Path 41733" class="cls-2" d="M23,16a1,1,0,0,0-1,1v4a1,1,0,0,1-1,1H3a1,1,0,0,1-1-1V17a1,1,0,0,0-2,0v4a3,3,0,0,0,3,3H21a3,3,0,0,0,3-3V17a1,1,0,0,0-1-1Z"/>
      <path id="Path_41734" data-name="Path 41734" class="cls-2" d="M5.293,13.538l4.586,4.587a3.007,3.007,0,0,0,4.242,0l4.586-4.586a1,1,0,1,0-1.414-1.414L13,16.416V1a1,1,0,0,0-2,0V16.417L6.707,12.124a1,1,0,1,0-1.414,1.414Z"/>
    </g>
  </g>
</svg>
