<svg xmlns="http://www.w3.org/2000/svg" xmlns:xlink="http://www.w3.org/1999/xlink" width="24" height="24" viewBox="0 0 24 24"><defs><clipPath id="a"><rect width="24" height="24" fill="#fed813" stroke="#707070" stroke-width="1"/></clipPath><clipPath id="b"><rect width="21.249" height="21.25" transform="translate(0 0)" fill="#fed813" stroke="#707070" stroke-width="1.062"/></clipPath></defs><g clip-path="url(#a)"><g transform="translate(21.043 24) rotate(-172)" clip-path="url(#b)"><g transform="translate(0.003 0)"><path d="M20.826,21.169a.759.759,0,0,1-.68,0h0L.416,11.3a.759.759,0,0,1,.2-1.423L8.45,8.456,9.878.623a.759.759,0,0,1,.637-.615A.744.744,0,0,1,10.621,0,.759.759,0,0,1,11.3.42l9.865,19.731A.759.759,0,0,1,20.826,21.169Z" fill="#fed813"/></g></g></g></svg>