<svg xmlns="http://www.w3.org/2000/svg" xmlns:xlink="http://www.w3.org/1999/xlink" width="24" height="24" viewBox="0 0 24 24"><defs><style>.a,.b{fill:#afafaf;}.a{stroke:#707070;}.c{clip-path:url(#a);}.d{clip-path:url(#b);}</style><clipPath id="a"><rect class="a" width="24" height="24" transform="translate(250 857)"/></clipPath><clipPath id="b"><rect class="b" width="24" height="24"/></clipPath></defs><g class="c" transform="translate(-250 -857)"><g class="d" transform="translate(250 857)"><path class="b" d="M7.5,13a4.505,4.505,0,1,1,3.181-1.319A4.5,4.5,0,0,1,7.5,13Zm0-7a2.5,2.5,0,1,0,1.768.732A2.5,2.5,0,0,0,7.5,6ZM15,23v-.5a7.5,7.5,0,0,0-15,0V23a1,1,0,0,0,2,0v-.5a5.5,5.5,0,1,1,11,0V23a1,1,0,0,0,2,0Zm9-5a7,7,0,0,0-11.667-5.217,1,1,0,1,0,1.334,1.49A5,5,0,0,1,22,18a1,1,0,0,0,2,0ZM17.5,9a4.505,4.505,0,1,1,3.181-1.319A4.5,4.5,0,0,1,17.5,9Zm0-7a2.5,2.5,0,1,0,1.768.732A2.5,2.5,0,0,0,17.5,2Z"/></g></g></svg>