<svg xmlns="http://www.w3.org/2000/svg" width="128.709" height="1" viewBox="0 0 128.709 1">
  <path id="Line_151" data-name="Line 151" d="M131.459.5h-2.993v-1h2.993Zm-5.986,0h-2.993v-1h2.993Zm-5.986,0h-2.993v-1h2.993ZM113.5.5h-2.993v-1H113.5Zm-5.986,0H104.52v-1h2.993Zm-5.986,0H98.533v-1h2.993ZM95.54.5H92.547v-1H95.54ZM89.554.5H86.561v-1h2.993ZM83.567.5H80.574v-1h2.993ZM77.581.5H74.588v-1h2.993ZM71.594.5H68.6v-1h2.993ZM65.608.5H62.615v-1h2.993ZM59.621.5H56.628v-1h2.993ZM53.635.5H50.642v-1h2.993ZM47.648.5H44.655v-1h2.993ZM41.662.5H38.669v-1h2.993ZM35.676.5H32.682v-1h2.993ZM29.689.5H26.7v-1h2.993ZM23.7.5H20.709v-1H23.7ZM17.716.5H14.723v-1h2.993ZM11.73.5H8.736v-1H11.73ZM5.743.5H2.75v-1H5.743Z" transform="translate(-2.75 0.5)" fill="#afafaf"/>
</svg>
