<svg id="_747065" data-name="747065" xmlns="http://www.w3.org/2000/svg" width="24.403" height="24.384" viewBox="0 0 24.403 24.384">
  <rect id="Rectangle_1185" data-name="Rectangle 1185" width="5.563" height="10.058" transform="translate(1.01 13.945)" fill="#fff"/>
  <path id="Path_1549" data-name="Path 1549" d="M18.744,287.183H13.181a.36.36,0,0,1-.381-.381V276.744a.36.36,0,0,1,.381-.381h5.563a.36.36,0,0,1,.381.381V286.8A.382.382,0,0,1,18.744,287.183Zm-5.182-.762h4.8v-9.3h-4.8Z" transform="translate(-12.171 -262.799)" fill="#193651"/>
  <rect id="Rectangle_1186" data-name="Rectangle 1186" width="5.563" height="10.058" transform="translate(17.85 13.945)" fill="#fff"/>
  <g id="Group_539" data-name="Group 539" transform="translate(0.019 13.564)">
    <path id="Path_1550" data-name="Path 1550" d="M361.628,287.183h-5.563a.36.36,0,0,1-.381-.381V276.744a.36.36,0,0,1,.381-.381h5.563a.36.36,0,0,1,.381.381V286.8A.382.382,0,0,1,361.628,287.183Zm-5.182-.762h4.8v-9.3h-4.8Z" transform="translate(-338.234 -276.363)" fill="#193651"/>
    <path id="Path_1551" data-name="Path 1551" d="M24.39,481.925H.768a.381.381,0,1,1,0-.762H24.39a.381.381,0,1,1,0,.762Z" transform="translate(-0.387 -471.105)" fill="#193651"/>
  </g>
  <path id="Path_1552" data-name="Path 1552" d="M29.062,177.067H10.85l-2.705,5.258H31.767Z" transform="translate(-7.745 -168.38)" fill="#f16051"/>
  <path id="Path_1553" data-name="Path 1553" d="M24.021,175.328H.4a.455.455,0,0,1-.343-.191.346.346,0,0,1,0-.381L2.761,169.5a.4.4,0,0,1,.343-.191H21.278a.4.4,0,0,1,.343.191l2.705,5.258a.445.445,0,0,1,0,.381A.339.339,0,0,1,24.021,175.328Zm-23.013-.762H23.374l-2.324-4.5H3.333Z" transform="translate(0.001 -161.002)" fill="#193651"/>
  <path id="Path_1554" data-name="Path 1554" d="M115.015,119.755l-7.277-5.525-7.277,5.525Z" transform="translate(-95.527 -108.629)" fill="#e1e6e9"/>
  <path id="Path_1555" data-name="Path 1555" d="M108.1,112.576H93.545a.366.366,0,0,1-.343-.267.407.407,0,0,1,.114-.419l7.277-5.525a.347.347,0,0,1,.457,0l7.277,5.525a.361.361,0,0,1,.114.419A.366.366,0,0,1,108.1,112.576Zm-13.411-.762h12.306l-6.172-4.648Z" transform="translate(-88.611 -101.069)" fill="#193651"/>
  <path id="Path_1556" data-name="Path 1556" d="M192.776,155.114l2.743-2.1,2.743,2.1Z" transform="translate(-183.308 -145.512)" fill="#fff"/>
  <rect id="Rectangle_1187" data-name="Rectangle 1187" width="11.278" height="11.24" transform="translate(6.572 12.764)" fill="#fdbf5e"/>
  <path id="Path_1557" data-name="Path 1557" d="M137.719,264.317H126.441a.36.36,0,0,1-.381-.381V252.7a.36.36,0,0,1,.381-.381h11.278a.36.36,0,0,1,.381.381v11.24A.36.36,0,0,1,137.719,264.317Zm-10.9-.762h10.516V253.077H126.822Z" transform="translate(-119.869 -239.932)" fill="#193651"/>
  <rect id="Rectangle_1188" data-name="Rectangle 1188" width="8.23" height="9.335" transform="translate(8.108 14.26)" fill="#fff"/>
  <rect id="Rectangle_1189" data-name="Rectangle 1189" width="12.726" height="1.638" transform="translate(5.848 11.125)" fill="#fdbf5e"/>
  <g id="Group_540" data-name="Group 540" transform="translate(5.467 10.744)">
    <path id="Path_1558" data-name="Path 1558" d="M124.428,221.356H111.7a.36.36,0,0,1-.381-.381v-1.638a.36.36,0,0,1,.381-.381h12.725a.36.36,0,0,1,.381.381v1.638A.382.382,0,0,1,124.428,221.356Zm-12.345-.762h11.964v-.876H112.083Z" transform="translate(-111.321 -218.956)" fill="#193651"/>
    <rect id="Rectangle_1190" data-name="Rectangle 1190" width="0.762" height="0.762" transform="translate(4.305 4.572)" fill="#193651"/>
    <rect id="Rectangle_1191" data-name="Rectangle 1191" width="0.762" height="0.762" transform="translate(6.363 4.572)" fill="#193651"/>
    <rect id="Rectangle_1192" data-name="Rectangle 1192" width="0.762" height="0.762" transform="translate(8.42 4.572)" fill="#193651"/>
  </g>
  <path id="Path_1559" data-name="Path 1559" d="M212.254,379.368v-3.277a1.981,1.981,0,0,0-3.962,0v3.277Z" transform="translate(-198.062 -355.746)" fill="#e1e6e9"/>
  <g id="Group_541" data-name="Group 541" transform="translate(2.077 17.259)">
    <rect id="Rectangle_1193" data-name="Rectangle 1193" width="1.41" height="1.41" transform="translate(18.86 1.981)" fill="#2ea2db"/>
    <rect id="Rectangle_1194" data-name="Rectangle 1194" width="1.41" height="1.41" transform="translate(16.84 1.981)" fill="#2ea2db"/>
    <rect id="Rectangle_1195" data-name="Rectangle 1195" width="1.41" height="1.41" transform="translate(18.86)" fill="#2ea2db"/>
    <rect id="Rectangle_1196" data-name="Rectangle 1196" width="1.41" height="1.41" transform="translate(16.84)" fill="#2ea2db"/>
    <rect id="Rectangle_1197" data-name="Rectangle 1197" width="1.41" height="1.41" transform="translate(2.019 1.981)" fill="#2ea2db"/>
    <rect id="Rectangle_1198" data-name="Rectangle 1198" width="1.41" height="1.41" transform="translate(0 1.981)" fill="#2ea2db"/>
    <rect id="Rectangle_1199" data-name="Rectangle 1199" width="1.41" height="1.41" transform="translate(2.019)" fill="#2ea2db"/>
    <rect id="Rectangle_1200" data-name="Rectangle 1200" width="1.41" height="1.41" fill="#2ea2db"/>
  </g>
  <path id="Path_1560" data-name="Path 1560" d="M241.253,6.176a.36.36,0,0,1-.381-.381V.575a.381.381,0,0,1,.762,0v5.22A.382.382,0,0,1,241.253,6.176Z" transform="translate(-229.042 -0.194)" fill="#193651"/>
  <path id="Path_1561" data-name="Path 1561" d="M253.05,10.771h-4.42V7.952h4.42l-1.143,1.41Z" transform="translate(-236.419 -7.571)" fill="#4fbf9f"/>
  <path id="Path_1562" data-name="Path 1562" d="M245.673,3.775h-4.42a.36.36,0,0,1-.381-.381V.575a.36.36,0,0,1,.381-.381h4.42a.366.366,0,0,1,.343.229.417.417,0,0,1-.038.419l-.953,1.143.914,1.1a.433.433,0,0,1,.114.3A.382.382,0,0,1,245.673,3.775Zm-4.039-.762h3.239l-.648-.762a.4.4,0,0,1,0-.5l.648-.762h-3.239Z" transform="translate(-229.042 -0.194)" fill="#193651"/>
</svg>
