<svg xmlns="http://www.w3.org/2000/svg" xmlns:xlink="http://www.w3.org/1999/xlink" width="24" height="24" viewBox="0 0 24 24"><defs><style>.a,.c{fill:#00c8b6;}.a{stroke:#707070;}.b{clip-path:url(#a);}</style><clipPath id="a"><rect class="a" width="24" height="24" transform="translate(288 385)"/></clipPath></defs><g class="b" transform="translate(-288 -385)"><g transform="translate(288 385.007)"><path class="c" d="M11.993,7.908a4.085,4.085,0,1,0,4.085,4.085A4.089,4.089,0,0,0,11.993,7.908Zm0,6.764a2.679,2.679,0,1,1,2.679-2.679A2.682,2.682,0,0,1,11.993,14.672Z"/><path class="c" d="M23.3,11.29H20.716A8.765,8.765,0,0,0,12.7,3.27V.7a.7.7,0,0,0-1.406,0V3.27a8.765,8.765,0,0,0-8.02,8.02H.7A.7.7,0,0,0,.7,12.7H3.271a8.765,8.765,0,0,0,8.02,8.02v2.567a.7.7,0,0,0,1.406,0V20.715a8.765,8.765,0,0,0,8.02-8.02H23.3a.7.7,0,1,0,0-1.406Zm-11.3,8.048a7.345,7.345,0,1,1,7.345-7.345A7.353,7.353,0,0,1,11.994,19.338Z"/></g></g></svg>