<svg xmlns="http://www.w3.org/2000/svg" xmlns:xlink="http://www.w3.org/1999/xlink" width="24"
    height="24" viewBox="0 0 24 24">
    <defs>
        <clipPath id="clip-path">
            <rect id="Rectangle_7553" data-name="Rectangle 7553" width="24" height="24"
                transform="translate(0 0.246)" fill="#afafaf" stroke="#707070" stroke-width="1" />
        </clipPath>
        <clipPath id="clip-path-2">
            <rect id="Rectangle_7552" data-name="Rectangle 7552" width="24" height="24"
                transform="translate(0 0.246)" fill="#afafaf" />
        </clipPath>
    </defs>
    <g id="Mask_Group_1290" data-name="Mask Group 1290" transform="translate(0 -0.246)"
        clip-path="url(#clip-path)">
        <g id="fi-rr-lock" transform="translate(0 0)" clip-path="url(#clip-path-2)">
            <path id="Path_43065" data-name="Path 43065"
                d="M19,8.424V7A7,7,0,1,0,5,7V8.424A5,5,0,0,0,2,13v6a5.006,5.006,0,0,0,5,5H17a5.006,5.006,0,0,0,5-5V13a5,5,0,0,0-3-4.576ZM7,7A5,5,0,0,1,17,7V8H7ZM20,19a3,3,0,0,1-3,3H7a3,3,0,0,1-3-3V13a3,3,0,0,1,3-3H17a3,3,0,0,1,3,3Z"
                transform="translate(0 -0.246)" fill="#afafaf" />
            <path id="Path_43066" data-name="Path 43066"
                d="M12,14a1,1,0,0,0-1,1v2a1,1,0,0,0,2,0V15a1,1,0,0,0-1-1Z"
                transform="translate(0 -0.246)" fill="#afafaf" />
        </g>
    </g>
</svg>
