<svg xmlns="http://www.w3.org/2000/svg" xmlns:xlink="http://www.w3.org/1999/xlink" width="24" height="24" viewBox="0 0 24 24"><defs><style>.a,.b{fill:#afafaf;}.a{stroke:#707070;}.c{clip-path:url(#a);}.d{clip-path:url(#b);}</style><clipPath id="a"><rect class="a" width="24" height="24"/></clipPath><clipPath id="b"><rect class="b" width="24" height="24"/></clipPath></defs><g class="c"><g class="d"><path class="b" d="M12,12a6.006,6.006,0,1,0-4.241-1.759A6,6,0,0,0,12,12ZM12,2A4,4,0,1,1,9.172,3.172,4,4,0,0,1,12,2Z"/><path class="b" d="M12,14a9.01,9.01,0,0,0-9,9,1,1,0,0,0,2,0,7,7,0,0,1,14,0,1,1,0,0,0,2,0,9.01,9.01,0,0,0-9-9Z"/></g></g></svg>