<svg xmlns="http://www.w3.org/2000/svg" xmlns:xlink="http://www.w3.org/1999/xlink" width="33.941" height="33.941" viewBox="0 0 33.941 33.941"><defs><style>.a,.b{fill:#afafaf;}.a{stroke:#707070;}.c{clip-path:url(#a);}.d{clip-path:url(#b);}</style><clipPath id="a"><rect class="a" width="24" height="24" transform="translate(0 0)"/></clipPath><clipPath id="b"><rect class="b" width="24" height="24"/></clipPath></defs><g class="c" transform="translate(33.941 16.971) rotate(135)"><g class="d" transform="translate(0 0)"><path class="b" d="M19.855,0H17.018a1.891,1.891,0,0,0-1.891,1.891,1.891,1.891,0,0,1-1.891,1.891H9.455A1.891,1.891,0,0,1,7.564,1.891,1.891,1.891,0,0,0,5.673,0H2.836A2.836,2.836,0,0,0,0,2.836V6.618a4.733,4.733,0,0,0,4.727,4.727H17.964a4.733,4.733,0,0,0,4.727-4.727V2.836A2.836,2.836,0,0,0,19.855,0ZM20.8,6.618a2.836,2.836,0,0,1-2.836,2.836H4.727A2.836,2.836,0,0,1,1.891,6.618V2.836a.945.945,0,0,1,.945-.945H5.673A3.782,3.782,0,0,0,9.455,5.673h3.782a3.782,3.782,0,0,0,3.782-3.782h2.836a.945.945,0,0,1,.945.945Z" transform="translate(0.735 15.977) rotate(-45)"/></g></g></svg>