<svg xmlns="http://www.w3.org/2000/svg" xmlns:xlink="http://www.w3.org/1999/xlink" width="24" height="24" viewBox="0 0 24 24"><defs><style>.a,.b{fill:#231f20;}.a{stroke:#707070;}.c{clip-path:url(#a);}.d{clip-path:url(#b);}</style><clipPath id="a"><rect class="a" width="24" height="24" transform="translate(-0.003 -0.008)"/></clipPath><clipPath id="b"><rect class="b" width="24" height="24" transform="translate(0 0)"/></clipPath></defs><g class="c" transform="translate(0.003 0.008)"><g class="d" transform="translate(-0.003 -0.009)"><path class="b" d="M20.21,11.548H17.322A1.925,1.925,0,0,1,15.4,9.624,1.925,1.925,0,0,0,13.473,7.7H9.624A1.925,1.925,0,0,0,7.7,9.624a1.925,1.925,0,0,1-1.925,1.925H2.887A2.887,2.887,0,0,1,0,8.661V4.812A4.817,4.817,0,0,1,4.812,0H18.285A4.818,4.818,0,0,1,23.1,4.812V8.661a2.887,2.887,0,0,1-2.887,2.887Zm.962-6.736a2.887,2.887,0,0,0-2.887-2.887H4.812A2.887,2.887,0,0,0,1.925,4.812V8.661a.962.962,0,0,0,.962.962H5.774A3.849,3.849,0,0,1,9.624,5.774h3.849a3.85,3.85,0,0,1,3.849,3.849h2.887a.962.962,0,0,0,.962-.962Z" transform="translate(15.518 24.439) rotate(-135)"/></g></g></svg>