<svg xmlns="http://www.w3.org/2000/svg" xmlns:xlink="http://www.w3.org/1999/xlink" width="24" height="24" viewBox="0 0 24 24"><defs><style>.a,.b{fill:#afafaf;}.a{stroke:#707070;}.c{clip-path:url(#a);}.d{clip-path:url(#b);}</style><clipPath id="a"><rect class="a" width="24" height="24" transform="translate(39 270)"/></clipPath><clipPath id="b"><rect class="b" width="24" height="24"/></clipPath></defs><g class="c" transform="translate(-39 -270)"><g class="d" transform="translate(39 270)"><path class="b" d="M24,23a1,1,0,0,1-1,1H1a1,1,0,1,1,0-2H23a1,1,0,0,1,1,1ZM.291,8.552A2.443,2.443,0,0,1,.444,5.986a4.716,4.716,0,0,1,1.668-1.5l7.5-3.9a5.174,5.174,0,0,1,4.774,0l7.5,3.907a4.717,4.717,0,0,1,1.668,1.5,2.443,2.443,0,0,1,.153,2.566A2.713,2.713,0,0,1,21.292,10H21v8h1a1,1,0,0,1,0,2H2a1,1,0,1,1,0-2H3V10H2.708A2.713,2.713,0,0,1,.291,8.552ZM5,18H8V10H5Zm5-8v8h4V10Zm9,0H16v8h3ZM2.063,7.625A.717.717,0,0,0,2.708,8H21.292a.717.717,0,0,0,.645-.375.452.452,0,0,0-.024-.5,2.7,2.7,0,0,0-.949-.864l-7.5-3.907a3.176,3.176,0,0,0-2.926,0l-7.5,3.907a2.712,2.712,0,0,0-.949.865.452.452,0,0,0-.026.5Z"/></g></g></svg>