<svg xmlns="http://www.w3.org/2000/svg" xmlns:xlink="http://www.w3.org/1999/xlink" width="24" height="24" viewBox="0 0 24 24"><defs><style>.a,.c{fill:#231f20;}.a{stroke:#707070;}.b{clip-path:url(#a);}</style><clipPath id="a"><rect class="a" width="24" height="24"/></clipPath></defs><g class="b"><path class="c" d="M23.12.882a2.966,2.966,0,0,0-2.8-.8l-16,3.37a5,5,0,0,0-2.853,8.481L3.184,13.65a1,1,0,0,1,.293.708v3.168a2.965,2.965,0,0,0,.3,1.285l-.008.007.026.026A3,3,0,0,0,5.157,20.2l.026.026.007-.008a2.964,2.964,0,0,0,1.285.3H9.643a1,1,0,0,1,.707.292l1.717,1.717A4.963,4.963,0,0,0,15.587,24a5.049,5.049,0,0,0,1.605-.264,4.933,4.933,0,0,0,3.344-3.986L23.912,3.715A2.975,2.975,0,0,0,23.12.882ZM4.6,12.238,2.881,10.521a2.94,2.94,0,0,1-.722-3.074,2.978,2.978,0,0,1,2.5-2.026L20.5,2.086,5.475,17.113V14.358a2.978,2.978,0,0,0-.875-2.12Zm13.971,7.17a3,3,0,0,1-5.089,1.712l-1.72-1.72a2.978,2.978,0,0,0-2.119-.878H6.888L21.916,3.5Z" transform="translate(-0.002 -0.001)"/></g></svg>