<svg xmlns="http://www.w3.org/2000/svg" xmlns:xlink="http://www.w3.org/1999/xlink" width="24" height="24" viewBox="0 0 24 24"><defs><style>.a,.c{fill:#231f20;}.a{stroke:#707070;}.b{clip-path:url(#a);}</style><clipPath id="a"><rect class="a" width="24" height="24" transform="translate(24 537)"/></clipPath></defs><g class="b" transform="translate(-24 -537)"><path class="c" d="M11,12a1,1,0,0,1,0,2H8a1,1,0,0,1,0-2Zm6-3a1,1,0,0,0-1-1H8a1,1,0,1,0,0,2h8a1,1,0,0,0,1-1ZM8,6h8a1,1,0,0,0,0-2H8A1,1,0,1,0,8,6ZM20,19.445v3.833a.721.721,0,0,1-1.231.51L18,23.021l-.769.768A.721.721,0,0,1,16,23.279V19.445A3.987,3.987,0,0,1,18,12a3.937,3.937,0,0,1,1,.142V5a3,3,0,0,0-3-3H8A3,3,0,0,0,5,5V17a3,3,0,0,0,3,3h5a1,1,0,0,1,0,2H8a5.006,5.006,0,0,1-5-5V5A5.006,5.006,0,0,1,8,0h8a5.006,5.006,0,0,1,5,5v8.383a3.95,3.95,0,0,1-1,6.062ZM20,16a2,2,0,1,0-.586,1.414A2,2,0,0,0,20,16Z" transform="translate(23.499 537)"/></g></svg>