<svg xmlns="http://www.w3.org/2000/svg" xmlns:xlink="http://www.w3.org/1999/xlink" width="24" height="24" viewBox="0 0 24 24"><defs><style>.a,.b{fill:#231f20;}.a{stroke:#707070;}.c{clip-path:url(#a);}.d{clip-path:url(#b);}</style><clipPath id="a"><rect class="a" width="24" height="24" transform="translate(24 390)"/></clipPath><clipPath id="b"><rect class="b" width="24" height="24"/></clipPath></defs><g class="c" transform="translate(-24 -390)"><g class="d" transform="translate(24 390)"><path class="b" d="M20,11H19V5a4,4,0,0,0-4-4H4A4,4,0,0,0,0,5V16a2.994,2.994,0,0,0,2.071,2.838A3.4,3.4,0,0,0,2,19.5,3.5,3.5,0,1,0,8.959,19h6.082A3.5,3.5,0,1,0,22,19.5a3.4,3.4,0,0,0-.071-.662A2.994,2.994,0,0,0,24,16V15a4,4,0,0,0-4-4ZM2,11V7H4v4ZM6,7H8v4H6Zm4,0h3V17H10Zm5,0h2v4H15ZM4,3H15a2,2,0,0,1,2,2H2A2,2,0,0,1,4,3ZM2,13H8v4H3a1,1,0,0,1-1-1Zm5,6.5a1.5,1.5,0,1,1-3,0,1.41,1.41,0,0,1,.093-.5H6.907A1.41,1.41,0,0,1,7,19.5ZM18.5,21A1.5,1.5,0,0,1,17,19.5a1.408,1.408,0,0,1,.093-.5h2.814a1.408,1.408,0,0,1,.093.5A1.5,1.5,0,0,1,18.5,21ZM22,16a1,1,0,0,1-1,1H15V13h5a2,2,0,0,1,2,2Z"/></g></g></svg>